<?xml version="1.0" encoding="utf-8"?>
<!-- Generator: Adobe Illustrator 22.0.1, SVG Export Plug-In . SVG Version: 6.00 Build 0)  -->
<svg version="1.1" id="Layer_1" xmlns="http://www.w3.org/2000/svg" xmlns:xlink="http://www.w3.org/1999/xlink" x="0px" y="0px"
	 viewBox=" -50 -55 3000 3000" style="enable-background:new 500 500 3000 3000;" xml:space="preserve">
<style type="text/css">
	.st0{fill:#C0E3EE;}
	.st1{fill:#000100;}
</style>
<g>
	<path d="M1002.7,2433.6c10.9,0,19.3,2.7,25.5,8c6.1,5.3,9.2,12.6,9.2,21.9c0,6.9-1.6,13-4.7,18.2c-3.1,5.2-8.2,8.8-15.1,10.7v0.3
		c3.3,0.6,6,1.7,8.1,3.2c2.1,1.5,3.7,3.3,4.9,5.3c1.2,2.1,2.1,4.4,2.7,6.9c0.6,2.6,1,5.2,1.4,8c0.2,2.8,0.4,5.6,0.5,8.5
		c0.1,2.9,0.4,5.7,0.8,8.5c0.4,2.8,1,5.4,1.8,7.9c0.8,2.5,2,4.7,3.6,6.6h-16.9c-1.1-1.2-1.8-2.8-2.2-4.8c-0.4-2-0.6-4.3-0.7-6.8
		c-0.1-2.5-0.2-5.2-0.3-8.1c-0.1-2.9-0.4-5.7-1-8.5c-0.4-2.8-1-5.4-1.6-7.9c-0.6-2.5-1.7-4.7-3-6.5c-1.4-1.9-3.2-3.4-5.4-4.5
		c-2.2-1.1-5.2-1.7-8.9-1.7h-37v48.7H949v-114H1002.7z M1005.9,2485.4c3.2-0.5,6-1.6,8.4-3.1c2.4-1.5,4.3-3.6,5.7-6.2
		c1.4-2.6,2.2-6,2.2-10.1c0-5.7-1.6-10.4-4.8-14c-3.2-3.6-8.4-5.4-15.5-5.4h-37.7v39.7h31.6
		C999.3,2486.2,1002.7,2485.9,1005.9,2485.4z"/>
	<path d="M1137.1,2433.6v12.8h-63.5v36.2h59.2v12.8h-59.2v39.4h64v12.8h-79.2v-114H1137.1z"/>
	<path d="M1213,2449.2c-5.1-3.7-11.5-5.5-19.4-5.5c-3.2,0-6.3,0.3-9.4,1c-3.1,0.6-5.8,1.7-8.2,3.2c-2.4,1.5-4.3,3.5-5.7,6
		c-1.4,2.5-2.2,5.6-2.2,9.3c0,3.5,1,6.4,3.1,8.5c2.1,2.2,4.8,4,8.3,5.3c3.5,1.4,7.4,2.5,11.7,3.4c4.4,0.9,8.8,1.9,13.3,3
		c4.5,1.1,9,2.3,13.3,3.8c4.4,1.4,8.3,3.4,11.7,5.8c3.5,2.4,6.2,5.5,8.3,9.3c2.1,3.7,3.1,8.4,3.1,14c0,6.1-1.4,11.3-4.1,15.6
		c-2.7,4.3-6.2,7.8-10.5,10.5c-4.3,2.7-9,4.7-14.3,5.9c-5.3,1.2-10.5,1.8-15.7,1.8c-6.4,0-12.4-0.8-18.1-2.4c-5.7-1.6-10.7-4-15-7.3
		c-4.3-3.2-7.7-7.4-10.2-12.5c-2.5-5.1-3.8-11-3.8-18h14.4c0,4.8,0.9,8.9,2.8,12.4c1.9,3.5,4.3,6.3,7.3,8.5c3,2.2,6.6,3.9,10.6,4.9
		c4,1.1,8.2,1.6,12.5,1.6c3.4,0,6.8-0.3,10.3-1c3.5-0.6,6.6-1.7,9.3-3.3c2.8-1.5,5-3.6,6.7-6.3c1.7-2.7,2.6-6.1,2.6-10.2
		c0-3.9-1-7.1-3.1-9.6c-2.1-2.4-4.8-4.4-8.3-6c-3.5-1.5-7.4-2.8-11.7-3.8c-4.4-1-8.8-1.9-13.3-3c-4.5-1-9-2.2-13.3-3.5
		c-4.4-1.3-8.3-3.1-11.7-5.3c-3.5-2.2-6.2-5-8.3-8.5c-2.1-3.5-3.1-7.8-3.1-13c0-5.7,1.2-10.7,3.5-14.9c2.3-4.2,5.5-7.7,9.3-10.4
		c3.9-2.7,8.3-4.7,13.2-6.1c4.9-1.3,10-2,15.2-2c5.9,0,11.3,0.7,16.3,2.1c5,1.4,9.4,3.6,13.2,6.5c3.8,3,6.8,6.7,8.9,11.3
		c2.2,4.5,3.4,9.9,3.6,16.2h-14.4C1221,2458.8,1218,2452.9,1213,2449.2z"/>
	<path d="M1247.2,2446.4v-12.8h91.2v12.8h-38v101.2h-15.2v-101.2H1247.2z"/>
	<path d="M1384,2433.6l44.5,114h-16.8l-12.5-34.3h-48.2l-12.8,34.3h-15.5l44.4-114H1384z M1394.6,2500.5l-19-53.2h-0.3l-19.3,53.2
		H1394.6z"/>
	<path d="M1519.1,2539.2c-7.8,7.3-18.8,10.9-33.2,10.9c-14.7,0-26.2-3.5-34.4-10.5c-8.2-7-12.4-18.1-12.4-33.3v-72.8h15.2v72.8
		c0,10.2,2.7,18,8.1,23.2c5.4,5.3,13.2,7.9,23.5,7.9c9.7,0,17.1-2.6,22.1-7.9c5.1-5.3,7.6-13,7.6-23.2v-72.8h15.2v72.8
		C1530.7,2521,1526.8,2531.9,1519.1,2539.2z"/>
	<path d="M1608.6,2433.6c10.9,0,19.3,2.7,25.5,8c6.1,5.3,9.2,12.6,9.2,21.9c0,6.9-1.6,13-4.7,18.2c-3.1,5.2-8.2,8.8-15.1,10.7v0.3
		c3.3,0.6,6,1.7,8.1,3.2c2.1,1.5,3.7,3.3,4.9,5.3c1.2,2.1,2.1,4.4,2.7,6.9c0.6,2.6,1,5.2,1.4,8c0.2,2.8,0.4,5.6,0.5,8.5
		c0.1,2.9,0.4,5.7,0.8,8.5c0.4,2.8,1,5.4,1.8,7.9c0.8,2.5,2,4.7,3.6,6.6h-16.9c-1.1-1.2-1.8-2.8-2.2-4.8c-0.4-2-0.6-4.3-0.7-6.8
		c-0.1-2.5-0.2-5.2-0.3-8.1c-0.1-2.9-0.4-5.7-1-8.5c-0.4-2.8-1-5.4-1.6-7.9c-0.6-2.5-1.7-4.7-3-6.5c-1.4-1.9-3.2-3.4-5.4-4.5
		c-2.2-1.1-5.2-1.7-8.9-1.7h-37v48.7H1555v-114H1608.6z M1611.8,2485.4c3.2-0.5,6-1.6,8.4-3.1c2.4-1.5,4.3-3.6,5.7-6.2
		c1.4-2.6,2.2-6,2.2-10.1c0-5.7-1.6-10.4-4.8-14c-3.2-3.6-8.4-5.4-15.5-5.4h-37.7v39.7h31.6
		C1605.3,2486.2,1608.6,2485.9,1611.8,2485.4z"/>
	<path d="M1712.1,2433.6l44.5,114h-16.8l-12.5-34.3h-48.2l-12.8,34.3h-15.5l44.4-114H1712.1z M1722.6,2500.5l-19-53.2h-0.3
		l-19.3,53.2H1722.6z"/>
	<path d="M1783.7,2433.6l60,92.4h0.3v-92.4h14.4v114h-16.6l-59.5-91.5h-0.3v91.5h-14.4v-114H1783.7z"/>
	<path d="M1870.9,2446.4v-12.8h91.2v12.8h-38v101.2h-15.2v-101.2H1870.9z"/>
	<path d="M2031.7,2449.2c-5.1-3.7-11.5-5.5-19.4-5.5c-3.2,0-6.3,0.3-9.4,1c-3.1,0.6-5.8,1.7-8.2,3.2c-2.4,1.5-4.3,3.5-5.7,6
		c-1.4,2.5-2.2,5.6-2.2,9.3c0,3.5,1,6.4,3.1,8.5c2.1,2.2,4.8,4,8.3,5.3c3.5,1.4,7.4,2.5,11.7,3.4c4.4,0.9,8.8,1.9,13.3,3
		c4.5,1.1,9,2.3,13.3,3.8c4.4,1.4,8.3,3.4,11.7,5.8c3.5,2.4,6.2,5.5,8.3,9.3c2.1,3.7,3.1,8.4,3.1,14c0,6.1-1.4,11.3-4.1,15.6
		c-2.7,4.3-6.2,7.8-10.5,10.5c-4.3,2.7-9,4.7-14.3,5.9c-5.3,1.2-10.5,1.8-15.7,1.8c-6.4,0-12.4-0.8-18.1-2.4c-5.7-1.6-10.7-4-15-7.3
		c-4.3-3.2-7.7-7.4-10.2-12.5c-2.5-5.1-3.8-11-3.8-18h14.4c0,4.8,0.9,8.9,2.8,12.4c1.9,3.5,4.3,6.3,7.3,8.5c3,2.2,6.6,3.9,10.6,4.9
		c4,1.1,8.2,1.6,12.5,1.6c3.4,0,6.8-0.3,10.3-1c3.5-0.6,6.6-1.7,9.3-3.3c2.8-1.5,5-3.6,6.7-6.3c1.7-2.7,2.6-6.1,2.6-10.2
		c0-3.9-1-7.1-3.1-9.6c-2.1-2.4-4.8-4.4-8.3-6c-3.5-1.5-7.4-2.8-11.7-3.8c-4.4-1-8.8-1.9-13.3-3c-4.5-1-9-2.2-13.3-3.5
		c-4.4-1.3-8.3-3.1-11.7-5.3c-3.5-2.2-6.2-5-8.3-8.5c-2.1-3.5-3.1-7.8-3.1-13c0-5.7,1.2-10.7,3.5-14.9c2.3-4.2,5.5-7.7,9.3-10.4
		c3.9-2.7,8.3-4.7,13.2-6.1c4.9-1.3,10-2,15.2-2c5.9,0,11.3,0.7,16.3,2.1c5,1.4,9.4,3.6,13.2,6.5c3.8,3,6.8,6.7,8.9,11.3
		c2.2,4.5,3.4,9.9,3.6,16.2h-14.4C2039.7,2458.8,2036.8,2452.9,2031.7,2449.2z"/>
</g>
<g>
	<path d="M78.4,2207.6c22.2-5.4,28.2-15.2,28.2-38.4v-157.6c0-47.7-5.4-89.9-5.4-116.4c0-22.7-8.1-38.5-28.2-43.9v-9.7
		c25.5,0,50.4,2.2,75.8,2.2c24.9,0,50.4-2.2,75.8-2.2c147.8,0,237.7,65,237.7,186.8c0,124-70.4,191.2-222.6,191.2
		c-27.1,0-54.2-2.2-80.7-2.2c-27.1,0-53.6,2.2-80.7,2.2V2207.6z M164.6,2193.5c25.5,3.2,46.6,4.3,67.2,4.3
		c103.4,0,155.4-63.4,155.4-167.3c0-98-68.2-167.3-164.1-167.3c-17.3,0-34.1,1.1-55.8,2.2c-0.5,47.7-2.7,91-2.7,136.5V2193.5z"/>
	<path d="M510.6,1841.5c19.5,0,39,2.2,59,2.2c19.5,0,39.5-2.2,59-2.2v11.9c-24.4,3.2-30.3,19.5-30.3,54.2
		c0,51.4-0.5,102.9-0.5,154.3c0,72.6,33.6,124,114.3,124c43.9,0,99.6-25.5,99.6-86.7v-63.9c0-63.9-4.9-127.8-4.9-154.9
		c0-15.2-14.6-25.5-27.6-27.1v-11.9c19.5,0,39,2.2,58.5,2.2c19.5,0,39.5-2.2,59-2.2v11.9c-17.9,0.5-25.5,21.7-25.5,40.1
		c0,20.6-1.6,76.9-1.6,148.4v118.1c0,30.3,6,46,29.8,47.7l0,11.9c-15.2,0-30.9-2.2-46-2.2c-15.2,0-30.3,2.2-45.5,2.2
		c1.1-18.4,2.7-35.2,3.8-51.4c-39.5,36.8-73.1,57.9-128.4,57.9c-80.2,0-143.5-46-143.5-127.3v-90.4c0-42.2-2.7-79.6-2.7-113.2
		c0-21.1-3.8-38.5-26.5-41.7V1841.5z"/>
	<path d="M943.3,2207.6c18.4-4.3,27.1-13,27.1-31.4V2037c0-46.6-2.7-93.1-2.7-139.2c0-25.5-2.7-39-30.3-44.4v-11.9
		c17.3,0,35.2,2.2,52.5,2.2c16.2,0,32.5-2.2,73.1-2.2c97.5,0,145.1,48.7,145.1,107.2c0,54.7-49.8,89.9-98,101.8l109.4,126.7
		c8.1,9.7,26.5,27.6,41.2,30.3l0,11.9c-17.9,0-36.3-2.2-54.2-2.2s-35.7,2.2-53.6,2.2v-11.9c3.8-0.5,5.4-2.7,6-6.5
		c0-4.9-1.6-9.7-8.1-17.3l-89.9-105.1c-8.1-9.2-19.5-23.3-32.5-23.3v107.2c0,22.7,2.7,39,30.3,44.9v11.9c-19.5,0-38.5-2.2-57.9-2.2
		c-19.5,0-37.9,2.2-57.4,2.2V2207.6z M1028.3,2038.6c8.1,0.5,14.6,1.6,21.1,1.6c49.8,0,92.6-33.6,92.6-85
		c0-49.8-22.7-94.2-81.8-94.2c-14.1,0-29.2,1.6-29.2,15.2L1028.3,2038.6z"/>
	<path d="M1282.9,1841.5c19.5,0,39,2.2,59,2.2c19.5,0,39.5-2.2,59-2.2v11.9c-24.4,3.2-30.3,19.5-30.3,54.2
		c0,51.4-0.5,102.9-0.5,154.3c0,72.6,33.6,124,114.3,124c43.9,0,99.6-25.5,99.6-86.7v-63.9c0-63.9-4.9-127.8-4.9-154.9
		c0-15.2-14.6-25.5-27.6-27.1v-11.9c19.5,0,39,2.2,58.5,2.2c19.5,0,39.5-2.2,59-2.2v11.9c-17.9,0.5-25.5,21.7-25.5,40.1
		c0,20.6-1.6,76.9-1.6,148.4v118.1c0,30.3,6,46,29.8,47.7v11.9c-15.2,0-30.9-2.2-46-2.2c-15.2,0-30.3,2.2-45.5,2.2
		c1.1-18.4,2.7-35.2,3.8-51.4c-39.5,36.8-73.1,57.9-128.3,57.9c-80.2,0-143.5-46-143.5-127.3v-90.4c0-42.2-2.7-79.6-2.7-113.2
		c0-21.1-3.8-38.5-26.5-41.7V1841.5z"/>
	<path d="M2091.4,1835h16.2L2132,2155c2.2,27.1,8.1,51.4,30.3,52.5l0,11.9c-19,0-37.4-2.2-56.3-2.2s-37.4,2.2-56.3,2.2v-11.9
		c17.9-2.2,24.4-19.5,24.4-37.4c0-17.3-1.1-29.2-2.2-36.8l-14.1-163h-1.1l-122.4,250.7l-153.8-256.7h-1.1l-9.2,160.8
		c-0.5,7.6-2.2,23.8-2.2,35.2c0,28.2,8.1,42.8,30.9,47.1v11.9c-16.2,0-32.5-2.2-48.7-2.2s-32.5,2.2-48.7,2.2v-11.9
		c24.4-5.4,30.9-23.3,34.7-65l27.1-307.6h17.9l165.2,294.1L2091.4,1835z"/>
	<path d="M2222.5,2063.5c0-65-1.6-133.8-1.6-182.5c0-20.6-8.7-25.5-23.3-27.6v-11.9c27.1,0,49.3,2.2,70.9,2.2
		c24.4,0,36.8-2.2,49.8-2.2c60.7,0,133.2,26,133.2,96.4c0,46-37.9,75.8-78.5,88.8v1.1c50.9,14.1,85,42.8,85,99.1
		c0,69.9-69.9,92.6-128.9,92.6c-7,0-14.6-0.5-22.2-1.1c-7-0.5-14.6-1.1-22.2-1.1h-93.1v-9.7c23.8-2.7,30.9-10.8,30.9-34.1V2063.5z
		 M2280.4,2015.8c9.7,0.5,17.3,1.1,24.4,1.1c48.2,0,80.7-29.8,80.7-76.9c0-47.7-22.2-79.1-80.7-79.1c-15.2,0-21.7,0.5-21.7,10.8
		L2280.4,2015.8z M2280.4,2165.3c0,29.2,3.8,34.7,37.4,34.7c46.6,0,74.2-33.6,74.2-75.3c0-49.3-30.3-86.1-82.3-86.1
		c-9.2,0-17.9,0.5-29.2,0.5V2165.3z"/>
	<path d="M2719.1,1835c125.1,0,210.1,70.4,210.1,195.5c0,125.1-85,195.5-210.1,195.5c-125.1,0-210.1-70.4-210.1-195.5
		C2509,1905.4,2594,1835,2719.1,1835z M2719.1,2203.2c92.1,0,134.9-83.4,134.9-172.8c0-89.4-42.8-172.8-134.9-172.8
		c-92.1,0-134.8,83.4-134.8,172.8C2584.2,2119.8,2627,2203.2,2719.1,2203.2z"/>
</g>
<g>
	<rect x="64.7" y="1741.3" width="2872.8" height="23.9"/>
</g>
<g>
	<rect x="64.7" y="2295.4" width="2872.8" height="23.9"/>
</g>
<g>
	<path class="st0" d="M970.5,614.3c0,81.4,16.6,211,16.6,357.2v406.9l177.8-96.1V941.6c0-139.6,6.6-272.5,8.3-418.7
		c66.5-3.3,118-6.7,171.1-6.7c256.4,0,448.4,161.7,493.4,402.4l204.4-110.5c-89-234.8-335.8-358.3-692.8-358.3
		c-78.1,0-156.2,6.6-232.6,6.6c-78.1,0-154.5-6.6-232.6-6.6v29.9C945.6,496.4,970.5,544.5,970.5,614.3z"/>
</g>
<g>
	<path class="st1" d="M2091,831.4l-209.1,113c3.5,26.3,5.3,53.4,5.3,81.3c0,319-159.5,513.4-476.8,513.4c-63.1,0-127.9-3.3-206-13.3
		v-215.1l-177.8,96.1v44.2c0,71.5-18.3,101.3-86.4,118v36.5c83.1,0,164.5-6.6,247.5-6.6c81.4,0,164.5,6.6,247.5,6.6
		c466.9,0,682.8-206,682.8-586.5C2118.1,950.5,2108.9,888,2091,831.4z"/>
</g>
</svg>
